# Blender 5.0.1
# www.blender.org
mtllib vehicle-speedster.mtl
o vehicle-speedster
v 0.100000 0.312500 0.187500
v 0.100000 0.312500 0.437500
v -0.100000 0.312500 0.187500
v -0.100000 0.312500 0.437500
v 0.125000 0.187500 0.437500
v 0.125000 0.062500 0.187500
v -0.125000 0.187500 0.437500
v -0.125000 0.062500 0.187500
v 0.125000 0.287500 0.437500
v -0.125000 0.287500 0.437500
v -0.125000 0.287500 0.187500
v 0.125000 0.287500 0.187500
v 0.100000 0.312500 -0.062500
v -0.100000 0.312500 -0.062500
v 0.125000 0.062500 -0.062500
v -0.125000 0.062500 -0.062500
v 0.125000 0.287500 -0.062500
v -0.125000 0.287500 -0.062500
v 0.200000 0.312500 -0.037500
v 0.200000 0.312500 0.012500
v 0.125000 0.312500 -0.037500
v 0.125000 0.312500 0.012500
v 0.200000 0.237500 0.012500
v 0.200000 0.237500 -0.037500
v 0.125000 0.237500 0.012500
v 0.125000 0.237500 -0.037500
v 0.125000 0.287500 -0.062500
v 0.200000 0.287500 -0.062500
v 0.125000 0.262500 -0.062500
v 0.200000 0.262500 -0.062500
v 0.250000 0.312500 0.312500
v 0.250000 0.312500 0.437500
v 0.250000 0.350000 0.312500
v 0.250000 0.375000 0.437500
v 0.250000 0.375000 0.337500
v -0.250000 0.312500 0.437500
v -0.250000 0.312500 0.312500
v -0.250000 0.375000 0.437500
v -0.250000 0.350000 0.312500
v -0.250000 0.375000 0.337500
v -0.125000 0.309549 -0.037500
v -0.125000 0.309549 0.012500
v -0.200000 0.309549 -0.037500
v -0.200000 0.309549 0.012500
v -0.125000 0.234549 0.012500
v -0.125000 0.234549 -0.037500
v -0.200000 0.234549 0.012500
v -0.200000 0.234549 -0.037500
v -0.200000 0.284549 -0.062500
v -0.125000 0.284549 -0.062500
v -0.200000 0.259549 -0.062500
v -0.125000 0.259549 -0.062500
v 0.100000 0.187500 -0.312500
v -0.100000 0.187500 -0.312500
v -0.125000 0.062500 -0.312500
v 0.125000 0.062500 -0.312500
v -0.125000 0.162500 -0.312500
v 0.125000 0.162500 -0.312500
v 0.053565 0.312500 0.187500
v -0.071435 0.312500 0.187500
v 0.053565 0.375000 0.187500
v -0.071435 0.375000 0.187500
v 0.053565 0.375000 0.087500
v 0.053565 0.312500 0.087500
v -0.046435 0.312500 0.062500
v 0.028565 0.312500 0.062500
v -0.046435 0.375000 0.062500
v 0.028565 0.375000 0.062500
v -0.071435 0.312500 0.087500
v -0.071435 0.375000 0.087500
v -0.125000 0.187500 -0.062500
v -0.125000 0.187500 0.187500
v -0.187500 0.187500 -0.062500
v -0.187500 0.187500 0.187500
v -0.250000 0.062500 -0.062500
v -0.250000 0.125000 -0.062500
v -0.231694 0.169194 -0.062500
v -0.250000 0.062500 0.187500
v -0.250000 0.125000 0.187500
v -0.231694 0.169194 0.187500
v 0.150000 0.093750 -0.156250
v 0.150000 0.093750 -0.218750
v -0.150000 0.093750 -0.156250
v -0.150000 0.093750 -0.218750
v 0.150000 0.156250 -0.156250
v -0.150000 0.156250 -0.156250
v 0.150000 0.156250 -0.218750
v -0.150000 0.156250 -0.218750
v 0.250000 0.125000 -0.312500
v -0.250000 0.125000 -0.312500
v 0.250000 0.125000 -0.412500
v -0.250000 0.125000 -0.412500
v 0.250000 0.062500 -0.437500
v 0.250000 0.062500 -0.312500
v 0.250000 0.100000 -0.437500
v -0.250000 0.062500 -0.312500
v -0.250000 0.062500 -0.437500
v -0.250000 0.100000 -0.437500
v 0.125000 0.187500 0.187500
v 0.125000 0.187500 -0.062500
v 0.187500 0.187500 0.187500
v 0.187500 0.187500 -0.062500
v 0.250000 0.062500 0.187500
v 0.250000 0.125000 0.187500
v 0.231694 0.169194 0.187500
v 0.250000 0.062500 -0.062500
v 0.250000 0.125000 -0.062500
v 0.231694 0.169194 -0.062500
v 0.150000 0.093750 0.343750
v 0.150000 0.093750 0.281250
v -0.150000 0.093750 0.343750
v -0.150000 0.093750 0.281250
v 0.150000 0.156250 0.343750
v -0.150000 0.156250 0.343750
v 0.150000 0.156250 0.281250
v -0.150000 0.156250 0.281250
vn 0.0825 0.9000 0.4279
vn -0.3466 0.8368 0.4238
vn 0.0312 0.7508 0.6597
vn -0.5053 0.3680 0.7806
vn 0.5511 0.5108 0.6598
vn -0.8384 0.3473 0.4201
vn -0.3174 0.8447 -0.4309
vn 0.3466 0.8368 -0.4238
vn 0.3433 0.8286 -0.4423
vn 0.9404 0.0957 -0.3264
vn 1.0000 -0.0000 -0.0000
vn 0.8723 0.2526 -0.4187
vn -0.6589 -0.7321 0.1728
vn -0.8062 0.3975 -0.4382
vn -1.0000 -0.0000 -0.0000
vn -0.4288 0.8936 -0.1326
vn 0.5773 0.5773 0.5774
vn 0.4553 0.8226 -0.3407
vn -0.5773 -0.5773 0.5774
vn 0.6600 -0.7511 0.0139
vn 0.5774 -0.5774 0.5774
vn -0.4553 -0.8226 -0.3407
vn 0.2872 0.3666 -0.8850
vn -0.6600 0.5410 -0.5213
vn -0.6575 -0.5919 -0.4663
vn 0.5773 -0.5773 0.5774
vn 0.7495 0.4219 -0.5101
vn 0.5773 0.5774 0.5774
vn 0.6552 0.7456 0.1215
vn -0.5773 -0.5773 -0.5774
vn 0.5774 -0.5774 -0.5774
vn -0.5773 0.5774 0.5774
vn -0.5774 -0.5774 0.5774
vn -0.6600 -0.0144 -0.7511
vn -0.6600 0.7511 0.0139
vn -0.5774 0.5774 0.5774
vn 0.4288 -0.8936 -0.1326
vn 0.6572 0.5942 -0.4636
vn -0.3358 -0.5447 -0.7685
vn 0.3582 -0.3573 -0.8626
vn 0.3205 0.9467 -0.0311
vn -0.2946 0.7720 -0.5633
vn -0.3412 0.9398 -0.0187
vn -0.5213 0.1126 -0.8459
vn 0.5774 -0.5774 -0.5773
vn -0.5774 -0.5774 -0.5774
vn -0.7071 -0.7071 -0.0000
vn 0.7071 -0.7071 -0.0000
vn -0.0000 -0.0000 1.0000
vn 0.7803 0.5624 0.2735
vn 0.7990 0.3890 -0.4586
vn 0.2941 0.7653 -0.5726
vn -0.6597 0.7508 0.0312
vn 0.5774 0.5773 0.5773
vn 0.8118 -0.4444 -0.3787
vn 0.7482 0.6575 0.0887
vn 0.7071 -0.0000 0.7071
vn -0.0167 0.4814 -0.8763
vn 0.3253 -0.4402 -0.8369
vn -0.3432 -0.4423 -0.8286
vn 0.3414 0.4516 -0.8243
vn -0.7071 -0.0000 0.7071
vn -0.8831 0.2937 -0.3658
vn -0.8587 -0.4319 -0.2757
vn -0.5774 0.5773 0.5774
vn -0.1063 0.8465 -0.5217
vn -0.0000 0.7071 0.7071
vn -0.0000 0.7071 -0.7071
vn 0.0423 0.7391 0.6723
vn -0.6356 0.2448 0.7322
vn -0.6736 0.3341 0.6592
vn -0.7397 0.0146 -0.6728
vn -0.6073 0.7217 -0.3322
vn 0.4693 -0.4859 0.7373
vn -0.4838 0.6189 0.6189
vn -0.6280 -0.4597 0.6280
vn 0.2653 0.9245 -0.2736
vn -0.3586 0.3817 -0.8519
vn 0.6431 0.0691 0.7627
vn -0.0000 -0.7071 0.7071
vn 0.5774 -0.5773 0.5774
vn 0.2704 0.6645 0.6966
vn -0.0423 0.7391 0.6723
vn 0.5773 -0.5773 -0.5774
vn -0.0000 -0.7071 -0.7071
vn 0.7396 0.0222 -0.6727
vn 0.6972 0.2797 -0.6600
vn 0.3219 0.6666 -0.6723
vn 0.4693 -0.7373 0.4859
vn 0.6189 -0.6188 0.4838
vn -0.4597 -0.6280 0.6280
vn -0.4693 0.4859 0.7373
vn 0.4693 0.7373 -0.4859
vn -0.4597 0.6280 -0.6280
vn -0.3561 -0.8166 0.4542
vn 0.6589 -0.7321 0.1728
vn 0.1624 -0.5188 0.8394
vn -0.0000 -1.0000 -0.0000
vn 0.6600 -0.5410 -0.5213
vn -0.9055 0.3801 0.1885
vn 0.4597 -0.6280 -0.6280
vt 0.593750 0.475000
vt 0.593750 0.455000
vt 0.593750 0.275000
vt 0.593750 0.408333
vt 0.593750 0.341667
vt 0.593750 0.395000
vt 0.593750 0.375000
vt 0.593750 0.355000
vt 0.593750 0.025000
vt 0.593750 0.225000
vt 0.218750 0.225000
vt 0.218750 0.025000
vt 0.218750 0.145000
vt 0.218750 0.125000
vt 0.218750 0.195711
s 1
usemtl colormap
f 2/1/1 3/1/2 4/1/3
f 10/2/4 9/2/5 2/1/1
f 10/2/4 2/1/1 4/1/3
f 10/2/4 3/1/2 11/2/6
f 14/1/7 1/1/8 13/1/9
f 1/1/8 14/1/7 3/1/2
f 12/2/10 15/3/11 17/2/12
f 8/3/13 18/2/14 16/3/15
f 11/2/6 14/1/7 18/2/14
f 21/1/16 20/1/17 19/1/18
f 25/3/19 24/3/20 23/3/21
f 24/3/20 25/3/19 26/3/22
f 21/1/16 28/4/23 27/4/24
f 28/4/23 21/1/16 19/1/18
f 24/3/20 19/1/18 20/1/17
f 24/3/20 20/1/17 23/3/21
f 26/3/22 27/4/24 29/5/25
f 21/1/16 26/3/22 25/3/19
f 32/3/26 33/6/27 34/1/28
f 34/1/28 33/6/27 35/1/29
f 32/3/26 37/3/30 31/3/31
f 38/1/32 37/3/30 36/3/33
f 37/3/30 38/1/32 39/6/34
f 32/3/26 38/1/32 36/3/33
f 42/1/17 43/1/35 44/1/36
f 46/3/37 47/3/19 48/3/22
f 43/1/35 50/4/23 49/4/24
f 50/4/23 43/1/35 41/1/38
f 51/5/39 46/3/37 48/3/22
f 49/4/24 52/5/40 51/5/39
f 52/5/40 49/4/24 50/4/23
f 41/1/38 52/5/40 50/4/23
f 52/5/40 41/1/38 46/3/37
f 48/3/22 49/4/24 51/5/39
f 49/4/24 48/3/22 43/1/35
f 43/1/35 48/3/22 47/3/19
f 13/1/41 54/7/42 14/1/43
f 57/8/44 56/3/45 55/3/46
f 16/3/47 56/3/45 15/3/48
f 16/3/49 17/2/49 18/2/49
f 17/2/50 56/3/45 58/8/51
f 56/3/45 17/2/50 15/3/48
f 13/1/41 58/8/51 53/7/52
f 25/9/19 20/10/17 22/10/36
f 42/10/17 47/9/19 45/9/21
f 47/9/19 42/10/17 44/10/36
f 38/11/32 35/11/29 40/11/53
f 37/12/30 33/13/27 31/12/31
f 35/11/29 39/13/34 40/11/53
f 61/11/54 64/12/55 63/11/56
f 64/12/55 61/11/54 59/12/57
f 67/11/58 66/12/59 65/12/60
f 66/12/59 67/11/58 68/11/61
f 60/12/62 70/11/63 69/12/64
f 70/11/63 60/12/62 62/11/65
f 69/12/64 67/11/58 65/12/60
f 67/11/58 69/12/64 70/11/63
f 63/11/56 66/12/59 68/11/61
f 62/11/65 68/11/61 67/11/58
f 62/11/65 67/11/58 70/11/63
f 73/11/66 72/11/67 71/11/68
f 72/11/67 73/11/66 74/11/69
f 79/14/70 72/11/67 80/15/71
f 80/15/71 72/11/67 74/11/69
f 78/12/19 76/14/72 75/12/46
f 77/15/73 74/11/69 73/11/66
f 83/12/74 85/11/75 86/11/76
f 91/11/77 90/11/32 89/11/28
f 90/11/32 91/11/77 92/11/53
f 94/12/26 95/13/27 89/11/28
f 97/12/30 94/12/26 96/12/33
f 94/12/26 97/12/30 93/12/31
f 90/11/32 97/12/30 96/12/33
f 98/13/78 91/11/77 95/13/27
f 91/11/77 98/13/78 92/11/53
f 104/14/79 6/12/80 103/12/81
f 6/12/80 104/14/79 99/11/67
f 99/11/67 104/14/79 105/15/82
f 99/11/67 105/15/82 101/11/83
f 100/11/68 106/12/84 15/12/85
f 106/12/84 100/11/68 107/14/86
f 107/14/86 100/11/68 108/15/87
f 108/15/87 100/11/68 102/11/88
f 103/12/81 15/12/85 106/12/84
f 104/14/79 106/12/84 107/14/86
f 105/15/82 102/11/88 101/11/83
f 108/15/87 104/14/79 107/14/86
f 111/12/89 110/12/90 109/12/91
f 113/11/92 111/12/89 109/12/91
f 111/12/89 113/11/92 114/11/76
f 116/11/93 113/11/92 115/11/94
f 113/11/92 116/11/93 114/11/76
f 110/12/90 116/11/93 115/11/94
f 3/1/2 2/1/1 1/1/8
f 7/7/95 6/3/96 5/7/97
f 6/3/96 7/7/95 8/3/13
f 9/2/5 7/7/95 5/7/97
f 7/7/95 9/2/5 10/2/4
f 7/7/95 11/2/6 8/3/13
f 11/2/6 7/7/95 10/2/4
f 9/2/5 6/3/96 12/2/10
f 6/3/96 9/2/5 5/7/97
f 2/1/1 12/2/10 1/1/8
f 12/2/10 2/1/1 9/2/5
f 3/1/2 10/2/4 4/1/3
f 8/3/13 15/3/98 6/3/96
f 15/3/98 8/3/13 16/3/98
f 15/3/11 12/2/10 6/3/96
f 18/2/14 8/3/13 11/2/6
f 14/1/7 11/2/6 3/1/2
f 1/1/8 17/2/12 13/1/9
f 17/2/12 1/1/8 12/2/10
f 20/1/17 21/1/16 22/1/36
f 29/5/25 24/3/20 26/3/22
f 24/3/20 29/5/25 30/5/99
f 27/4/24 30/5/99 29/5/25
f 30/5/99 27/4/24 28/4/23
f 19/1/18 30/5/99 28/4/23
f 30/5/99 19/1/18 24/3/20
f 27/4/24 26/3/22 21/1/16
f 21/1/16 25/3/19 22/1/36
f 33/6/27 32/3/26 31/3/31
f 37/3/30 32/3/26 36/3/33
f 39/6/34 38/1/32 40/1/53
f 38/1/32 32/3/26 34/1/28
f 43/1/35 42/1/17 41/1/38
f 47/3/19 46/3/37 45/3/21
f 46/3/37 51/5/39 52/5/40
f 46/3/37 41/1/38 42/1/17
f 46/3/37 42/1/17 45/3/21
f 43/1/35 47/3/19 44/1/36
f 54/7/42 13/1/41 53/7/52
f 56/3/45 57/8/44 58/8/51
f 58/8/51 57/8/44 54/7/42
f 58/8/51 54/7/42 53/7/52
f 56/3/45 16/3/47 55/3/46
f 17/2/49 16/3/49 15/3/49
f 18/2/49 17/2/49 13/1/49
f 18/2/49 13/1/49 14/1/49
f 16/3/47 57/8/44 55/3/46
f 57/8/44 16/3/47 18/2/100
f 18/2/100 54/7/42 57/8/44
f 54/7/42 18/2/100 14/1/43
f 58/8/51 13/1/41 17/2/50
f 20/10/17 25/9/19 23/9/21
f 35/11/29 38/11/32 34/11/28
f 33/13/27 37/12/30 39/13/34
f 39/13/34 35/11/29 33/13/27
f 61/11/54 60/12/62 59/12/57
f 60/12/62 61/11/54 62/11/65
f 66/12/59 63/11/56 64/12/55
f 68/11/61 61/11/54 63/11/56
f 61/11/54 68/11/61 62/11/65
f 76/14/72 16/12/85 75/12/46
f 16/12/85 76/14/72 71/11/68
f 71/11/68 76/14/72 77/15/73
f 71/11/68 77/15/73 73/11/66
f 72/11/67 78/12/19 8/12/80
f 78/12/19 72/11/67 79/14/70
f 78/12/19 16/12/85 8/12/80
f 16/12/85 78/12/19 75/12/46
f 76/14/72 78/12/19 79/14/70
f 74/11/69 77/15/73 80/15/71
f 79/14/70 77/15/73 76/14/72
f 77/15/73 79/14/70 80/15/71
f 83/12/74 82/12/90 81/12/91
f 82/12/90 83/12/74 84/12/101
f 85/11/75 83/12/74 81/12/91
f 88/11/93 85/11/75 87/11/94
f 85/11/75 88/11/93 86/11/76
f 88/11/93 82/12/90 84/12/101
f 82/12/90 88/11/93 87/11/94
f 95/13/27 94/12/26 93/12/31
f 89/11/28 95/13/27 91/11/77
f 97/12/30 90/11/32 98/13/78
f 98/13/78 90/11/32 92/11/53
f 90/11/32 94/12/26 89/11/28
f 94/12/26 90/11/32 96/12/33
f 97/12/30 95/13/27 93/12/31
f 95/13/27 97/12/30 98/13/78
f 101/11/83 100/11/68 99/11/67
f 100/11/68 101/11/83 102/11/88
f 15/12/85 103/12/81 6/12/80
f 106/12/84 104/14/79 103/12/81
f 102/11/88 105/15/82 108/15/87
f 104/14/79 108/15/87 105/15/82
f 110/12/90 111/12/89 112/12/101
f 116/11/93 110/12/90 112/12/101
f 84/12/101 83/12/74 86/11/76 88/11/93
f 116/11/93 112/12/101 111/12/89 114/11/76
f 115/11/94 113/11/92 109/12/91 110/12/90
f 82/12/90 87/11/94 85/11/75 81/12/91
